<svg xmlns="http://www.w3.org/2000/svg" xmlns:xlink="http://www.w3.org/1999/xlink" viewBox="0,0,256,256" width="50px" height="50px"><g fill="#ffffff" fill-rule="nonzero" stroke="none" stroke-width="1" stroke-linecap="butt" stroke-linejoin="miter" stroke-miterlimit="10" stroke-dasharray="" stroke-dashoffset="0" font-family="none" font-weight="none" font-size="none" text-anchor="none" style="mix-blend-mode: normal"><g transform="scale(5.12,5.12)"><path d="M21.83398,2.22461c-9.865,1.441 -19.80078,9.69466 -19.80078,22.84766c0,12.781 10.32294,22.92773 22.96094,22.92773c14.238,0 26.8017,-13.8382 21.9707,-29.7832c-0.208,-0.685 -1.03575,-0.95581 -1.59375,-0.50781l-4.2793,3.43359c-0.29,0.232 -0.41856,0.60375 -0.35156,0.96875c0.171,0.938 0.25977,1.90667 0.25977,2.88867c0,9.102 -7.59006,16.42147 -16.78906,15.98047c-7.511,-0.36 -14.54525,-7.14367 -15.15625,-14.63867c-0.689,-8.453 5.20166,-15.66898 13.09766,-17.08398c0.486,-0.086 0.84766,-0.49137 0.84766,-0.98437v-5.06055c0,-0.619 -0.55402,-1.07728 -1.16602,-0.98828zM30.01758,2.58789c-0.54484,-0.00301 -1.01758,0.42687 -1.01758,1v14.49023c-1.178,-0.682 -2.541,-1.07812 -4,-1.07812c-4.418,0 -8,3.582 -8,8c0,4.418 3.582,8 8,8c4.418,0 8,-3.582 8,-8v-13.84961c1.612,0.933 3.05114,2.12892 4.24414,3.54492c0.435,0.517 1.24447,0.46653 1.60547,-0.10547l2.76563,-4.375c0.246,-0.388 0.20286,-0.90438 -0.11914,-1.23438c-1.074,-1.102 -4.79219,-4.82328 -11.24219,-6.36328c-0.07963,-0.01887 -0.15849,-0.02887 -0.23633,-0.0293z"></path></g></g></svg>