<svg xmlns="http://www.w3.org/2000/svg" xmlns:xlink="http://www.w3.org/1999/xlink" viewBox="0,0,256,256" width="50px" height="50px"><g fill="#ffffff" fill-rule="nonzero" stroke="none" stroke-width="1" stroke-linecap="butt" stroke-linejoin="miter" stroke-miterlimit="10" stroke-dasharray="" stroke-dashoffset="0" font-family="none" font-weight="none" font-size="none" text-anchor="none" style="mix-blend-mode: normal"><g transform="scale(5.12,5.12)"><path d="M41,4h-32c-2.76,0 -5,2.24 -5,5v32c0,2.76 2.24,5 5,5h32c2.76,0 5,-2.24 5,-5v-32c0,-2.76 -2.24,-5 -5,-5zM37.72,33l-3.73,-0.01c0,0 -0.08,0.01 -0.21,0.01c-0.3,0 -0.92,-0.08 -1.65,-0.58c-1.31,-0.91 -2.56,-3.17 -3.55,-3.17c-0.07,0 -0.13,0.01 -0.19,0.03c-0.86,0.27 -1.12,1.13 -1.12,2.18c0,0.37 -0.26,0.54 -0.96,0.54h-1.93c-2.16,0 -4.25,-0.05 -6.6,-2.62c-3.46,-3.79 -6.7,-10.53 -6.7,-10.53c0,0 -0.18,-0.39 0.01,-0.62c0.18,-0.21 0.6,-0.23 0.76,-0.23c0.04,0 0.06,0 0.06,0h4c0,0 0.37,0.07 0.64,0.27c0.23,0.17 0.35,0.48 0.35,0.48c0,0 0.68,1.32 1.53,2.81c1.43,2.46 2.2,3.28 2.75,3.28c0.09,0 0.18,-0.02 0.27,-0.07c0.82,-0.45 0.58,-4.09 0.58,-4.09c0,0 0.01,-1.32 -0.42,-1.9c-0.33,-0.46 -0.96,-0.59 -1.24,-0.63c-0.22,-0.03 0.14,-0.55 0.62,-0.79c0.62,-0.3 1.65,-0.36 2.89,-0.36h0.6c1.17,0.02 1.2,0.14 1.66,0.25c1.38,0.33 0.91,1.62 0.91,4.71c0,0.99 -0.18,2.38 0.53,2.85c0.05,0.03 0.12,0.05 0.21,0.05c0.46,0 1.45,-0.59 3.03,-3.26c0.88,-1.52 1.56,-3.03 1.56,-3.03c0,0 0.15,-0.27 0.38,-0.41c0.22,-0.13 0.22,-0.13 0.51,-0.13h0.03c0.32,0 3.5,-0.03 4.2,-0.03h0.08c0.67,0 1.28,0.01 1.39,0.42c0.16,0.62 -0.49,1.73 -2.2,4.03c-2.82,3.77 -3.14,3.49 -0.8,5.67c2.24,2.08 2.7,3.09 2.78,3.22c0.93,1.54 -1.03,1.66 -1.03,1.66z"></path></g></g></svg>